<svg xmlns="http://www.w3.org/2000/svg" viewBox="0 0 1440 900" preserveAspectRatio="xMidYMid slice">
  <defs>
    <linearGradient id="sky" x1="0" y1="0" x2="0" y2="1">
      <stop offset="0%" stop-color="#05080f"/>
      <stop offset="55%" stop-color="#0d1a2e"/>
      <stop offset="100%" stop-color="#1a2a1a"/>
    </linearGradient>
    <radialGradient id="moon" cx="50%" cy="50%" r="50%">
      <stop offset="0%" stop-color="#fffbe6" stop-opacity="1"/>
      <stop offset="100%" stop-color="#ffe97a" stop-opacity="0"/>
    </radialGradient>
    <radialGradient id="glow1" cx="50%" cy="50%" r="50%">
      <stop offset="0%" stop-color="#ff6a00" stop-opacity="0.18"/>
      <stop offset="100%" stop-color="#ff6a00" stop-opacity="0"/>
    </radialGradient>
    <radialGradient id="glow2" cx="50%" cy="50%" r="50%">
      <stop offset="0%" stop-color="#00bfff" stop-opacity="0.10"/>
      <stop offset="100%" stop-color="#00bfff" stop-opacity="0"/>
    </radialGradient>
    <filter id="blur-sm">
      <feGaussianBlur stdDeviation="2"/>
    </filter>
    <filter id="blur-md">
      <feGaussianBlur stdDeviation="6"/>
    </filter>
  </defs>

  <!-- Sky -->
  <rect width="1440" height="900" fill="url(#sky)"/>

  <!-- Atmospheric glow - horizon warm -->
  <ellipse cx="720" cy="820" rx="700" ry="180" fill="url(#glow1)" filter="url(#blur-md)"/>
  <!-- Cool city glow left -->
  <ellipse cx="300" cy="750" rx="320" ry="120" fill="url(#glow2)" filter="url(#blur-md)"/>

  <!-- Stars -->
  <g fill="#ffffff">
    <circle cx="80" cy="60" r="1.2" opacity="0.9"/>
    <circle cx="150" cy="30" r="0.8" opacity="0.7"/>
    <circle cx="220" cy="90" r="1.0" opacity="0.8"/>
    <circle cx="310" cy="45" r="0.6" opacity="0.6"/>
    <circle cx="380" cy="20" r="1.1" opacity="0.85"/>
    <circle cx="460" cy="70" r="0.7" opacity="0.65"/>
    <circle cx="540" cy="35" r="1.3" opacity="0.9"/>
    <circle cx="600" cy="85" r="0.6" opacity="0.5"/>
    <circle cx="670" cy="15" r="0.9" opacity="0.75"/>
    <circle cx="760" cy="55" r="1.0" opacity="0.8"/>
    <circle cx="840" cy="25" r="0.7" opacity="0.6"/>
    <circle cx="920" cy="75" r="1.2" opacity="0.88"/>
    <circle cx="1000" cy="40" r="0.8" opacity="0.7"/>
    <circle cx="1080" cy="90" r="1.0" opacity="0.8"/>
    <circle cx="1150" cy="18" r="0.6" opacity="0.55"/>
    <circle cx="1230" cy="60" r="1.1" opacity="0.82"/>
    <circle cx="1310" cy="35" r="0.9" opacity="0.72"/>
    <circle cx="1390" cy="80" r="0.7" opacity="0.65"/>
    <circle cx="120" cy="140" r="0.6" opacity="0.5"/>
    <circle cx="270" cy="120" r="0.8" opacity="0.6"/>
    <circle cx="430" cy="160" r="0.6" opacity="0.45"/>
    <circle cx="700" cy="130" r="0.9" opacity="0.7"/>
    <circle cx="950" cy="110" r="0.7" opacity="0.6"/>
    <circle cx="1100" cy="155" r="0.6" opacity="0.5"/>
    <circle cx="1360" cy="120" r="0.8" opacity="0.65"/>
  </g>

  <!-- Moon -->
  <circle cx="1100" cy="110" r="38" fill="url(#moon)" opacity="0.92"/>
  <circle cx="1100" cy="110" r="38" fill="none" stroke="#fffbe6" stroke-width="0.5" opacity="0.3"/>
  <!-- Moon craters subtle -->
  <circle cx="1090" cy="100" r="5" fill="#f0e68c" opacity="0.08"/>
  <circle cx="1112" cy="118" r="3" fill="#f0e68c" opacity="0.08"/>

  <!-- Moon halo -->
  <circle cx="1100" cy="110" r="60" fill="none" stroke="#fffbe6" stroke-width="1" opacity="0.06"/>

  <!-- === SKYLINE === -->

  <!-- Far background buildings - very dark, hazy -->
  <g fill="#0d1822" opacity="0.85">
    <rect x="0" y="560" width="60" height="280"/>
    <rect x="55" y="590" width="40" height="250"/>
    <rect x="90" y="545" width="55" height="295"/>
    <rect x="140" y="575" width="35" height="265"/>
    <rect x="170" y="555" width="50" height="285"/>
    <rect x="215" y="580" width="30" height="260"/>
    <rect x="240" y="540" width="65" height="300"/>
    <rect x="300" y="570" width="40" height="270"/>
    <rect x="335" y="550" width="55" height="290"/>
    <rect x="385" y="580" width="30" height="260"/>
    <rect x="410" y="545" width="70" height="295"/>
    <rect x="475" y="565" width="45" height="275"/>
    <rect x="515" y="540" width="60" height="300"/>
    <rect x="570" y="560" width="40" height="280"/>
    <rect x="605" y="550" width="55" height="290"/>
    <rect x="655" y="580" width="30" height="260"/>
    <rect x="680" y="540" width="75" height="300"/>
    <rect x="750" y="555" width="50" height="285"/>
    <rect x="795" y="545" width="65" height="295"/>
    <rect x="855" y="570" width="40" height="270"/>
    <rect x="890" y="540" width="60" height="300"/>
    <rect x="945" y="560" width="45" height="280"/>
    <rect x="985" y="550" width="55" height="290"/>
    <rect x="1035" y="575" width="35" height="265"/>
    <rect x="1065" y="545" width="70" height="295"/>
    <rect x="1130" y="560" width="50" height="280"/>
    <rect x="1175" y="540" width="65" height="300"/>
    <rect x="1235" y="570" width="40" height="270"/>
    <rect x="1270" y="550" width="55" height="290"/>
    <rect x="1320" y="575" width="30" height="265"/>
    <rect x="1345" y="545" width="60" height="295"/>
    <rect x="1400" y="560" width="45" height="280"/>
  </g>

  <!-- Mid buildings -->
  <g fill="#0a1520">
    <!-- KICC-inspired tall tower (center-left) -->
    <rect x="340" y="380" width="70" height="460"/>
    <rect x="348" y="370" width="54" height="20"/>
    <rect x="358" y="355" width="34" height="20"/>
    <rect x="366" y="330" width="18" height="30"/>
    <rect x="372" y="300" width="6" height="35"/>

    <!-- UAP Tower shape (right of center) -->
    <rect x="820" y="400" width="80" height="440"/>
    <rect x="830" y="390" width="60" height="15"/>
    <rect x="845" y="375" width="30" height="20"/>
    <rect x="852" y="355" width="16" height="25"/>
    <rect x="857" y="330" width="6" height="30"/>

    <!-- Britam-style tower -->
    <rect x="1010" y="420" width="75" height="420"/>
    <rect x="1018" y="410" width="59" height="15"/>
    <rect x="1033" y="395" width="29" height="20"/>
    <rect x="1040" y="378" width="15" height="22"/>
    <rect x="1044" y="355" width="7" height="28"/>

    <!-- Times Tower inspired (tall, left side) -->
    <rect x="120" y="360" width="65" height="480"/>
    <rect x="128" y="348" width="49" height="16"/>
    <rect x="140" y="333" width="25" height="18"/>
    <rect x="148" y="310" width="9" height="28"/>
    <rect x="150" y="285" width="5" height="30"/>

    <!-- Wide commercial block -->
    <rect x="500" y="480" width="140" height="360"/>
    <rect x="510" y="468" width="120" height="15"/>

    <!-- Wide block right -->
    <rect x="1180" y="470" width="130" height="370"/>
    <rect x="1190" y="458" width="110" height="15"/>

    <!-- Misc mid towers -->
    <rect x="240" y="440" width="60" height="400"/>
    <rect x="670" y="430" width="70" height="410"/>
    <rect x="750" y="450" width="55" height="390"/>
    <rect x="1100" y="440" width="65" height="400"/>
    <rect x="1330" y="450" width="70" height="390"/>
  </g>

  <!-- Foreground buildings - darkest -->
  <g fill="#060d14">
    <rect x="0" y="620" width="90" height="280"/>
    <rect x="85" y="640" width="55" height="260"/>
    <rect x="135" y="600" width="80" height="300"/>
    <rect x="210" y="630" width="50" height="270"/>
    <rect x="255" y="610" width="75" height="290"/>
    <rect x="325" y="650" width="40" height="250"/>
    <rect x="430" y="620" width="60" height="280"/>
    <rect x="485" y="640" width="35" height="260"/>
    <rect x="615" y="615" width="65" height="285"/>
    <rect x="675" y="635" width="40" height="265"/>
    <rect x="720" y="610" width="80" height="290"/>
    <rect x="795" y="650" width="35" height="250"/>
    <rect x="900" y="618" width="70" height="282"/>
    <rect x="965" y="640" width="45" height="260"/>
    <rect x="1070" y="612" width="85" height="288"/>
    <rect x="1150" y="645" width="40" height="255"/>
    <rect x="1185" y="620" width="65" height="280"/>
    <rect x="1245" y="640" width="50" height="260"/>
    <rect x="1290" y="615" width="75" height="285"/>
    <rect x="1360" y="638" width="45" height="262"/>
    <rect x="1400" y="622" width="45" height="278"/>
  </g>

  <!-- Ground / road -->
  <rect x="0" y="840" width="1440" height="60" fill="#040a10"/>

  <!-- Street lights / tiny warm windows scattered -->
  <g fill="#ffcc66" opacity="0.55" filter="url(#blur-sm)">
    <!-- Windows on mid buildings -->
    <rect x="128" y="380" width="5" height="4"/>
    <rect x="140" y="395" width="5" height="4"/>
    <rect x="153" y="380" width="5" height="4"/>
    <rect x="128" y="410" width="5" height="4"/>
    <rect x="153" y="410" width="5" height="4"/>

    <rect x="350" y="400" width="5" height="4"/>
    <rect x="362" y="415" width="5" height="4"/>
    <rect x="375" y="400" width="5" height="4"/>
    <rect x="350" y="430" width="5" height="4"/>
    <rect x="375" y="430" width="5" height="4"/>

    <rect x="830" y="420" width="5" height="4"/>
    <rect x="845" y="435" width="5" height="4"/>
    <rect x="860" y="420" width="5" height="4"/>
    <rect x="830" y="455" width="5" height="4"/>
    <rect x="860" y="455" width="5" height="4"/>

    <rect x="1015" y="440" width="5" height="4"/>
    <rect x="1030" y="455" width="5" height="4"/>
    <rect x="1045" y="440" width="5" height="4"/>
    <rect x="1015" y="475" width="5" height="4"/>
    <rect x="1045" y="475" width="5" height="4"/>

    <!-- Scattered window lights on various buildings -->
    <rect x="510" y="492" width="4" height="3"/>
    <rect x="522" y="505" width="4" height="3"/>
    <rect x="560" y="492" width="4" height="3"/>
    <rect x="590" y="510" width="4" height="3"/>

    <rect x="680" y="448" width="4" height="3"/>
    <rect x="695" y="462" width="4" height="3"/>
    <rect x="710" y="448" width="4" height="3"/>

    <rect x="1190" y="485" width="4" height="3"/>
    <rect x="1205" y="498" width="4" height="3"/>
    <rect x="1240" y="485" width="4" height="3"/>
    <rect x="1270" y="500" width="4" height="3"/>
  </g>

  <!-- Blue-tinted office lights -->
  <g fill="#7ecfff" opacity="0.30" filter="url(#blur-sm)">
    <rect x="135" y="365" width="4" height="3"/>
    <rect x="155" y="370" width="4" height="3"/>
    <rect x="355" y="388" width="4" height="3"/>
    <rect x="370" y="402" width="4" height="3"/>
    <rect x="835" y="408" width="4" height="3"/>
    <rect x="855" y="418" width="4" height="3"/>
    <rect x="1020" y="428" width="4" height="3"/>
    <rect x="1040" y="445" width="4" height="3"/>
    <rect x="515" y="480" width="4" height="3"/>
    <rect x="545" y="495" width="4" height="3"/>
    <rect x="685" y="438" width="4" height="3"/>
  </g>

  <!-- Subtle horizontal mist band -->
  <rect x="0" y="700" width="1440" height="80" fill="#0d1a2e" opacity="0.25"/>
</svg>
